<?xml version="1.0" encoding="utf-8"?>
<!-- Generator: Adobe Illustrator 22.1.0, SVG Export Plug-In . SVG Version: 6.00 Build 0)  -->
<svg version="1.1" id="圖層_1" xmlns="http://www.w3.org/2000/svg" xmlns:xlink="http://www.w3.org/1999/xlink" x="0px" y="0px"
	 viewBox="0 0 111 51" style="enable-background:new 0 0 111 51;" xml:space="preserve">
<style type="text/css">
	.st0{fill:#DB4E2B;}
	.st1{fill:#309DCD;}
	.st2{fill:#42A64B;}
	.st3{fill:#DB693E;}
	.st4{fill:#FDFDFD;}
	.st5{fill:#FFFFFF;}
</style>
<g>
	<path class="st0" d="M69.4,23.1c1.9,0,3.9,0,5.8,0c0.5,0,0.6,0.1,0.6,0.6c0,5.3,0,10.6,0,15.8c0,0.3,0,0.5,0,0.8c0,0.8,0,1.6,0,2.4
		c0,0.4-0.1,0.5-0.6,0.5c-2,0-3.9,0-5.9,0c-0.5,0-0.6-0.1-0.6-0.6c0-3.2,0-6.4,0-9.6c0-0.2,0-0.3,0-0.7c-1.8,2.5-3.6,4.9-5.3,7.3
		c-1.8-2.4-3.5-4.8-5.4-7.3c0,0.4,0,0.6,0,0.8c0,3.1,0,6.3,0,9.4c0,0.5-0.1,0.6-0.6,0.6c-1.9,0-3.9,0-5.9,0c-0.4,0-0.5-0.1-0.5-0.5
		c0-6.4,0-12.8,0-19.1c0-0.4,0.2-0.5,0.5-0.5c1.8,0,3.7,0,5.5,0c0.3,0,0.5,0.1,0.7,0.4c1.8,2.4,3.5,4.8,5.3,7.2
		c0.3,0.4,0.4,0.4,0.7,0C65.7,28.1,67.5,25.6,69.4,23.1z"/>
	<path class="st0" d="M38.7,43.2c-1.2,0-2.4,0-3.7,0c-1.6,0-2.6-1.1-2.7-2.6c0-1.1,0-2.2,0-3.4c0-1.7-0.5-3.3-1.4-4.7
		c-2.9-4.3-1.6-9.8,2.6-12.5c3.2-2.1,6.7-2.2,9.9-0.1c3.2,2,4.6,5,4.3,8.8c-0.1,1.4-0.7,2.6-1.4,3.8c-1,1.5-1.5,3.2-1.5,5
		c0,1.1,0,2.1,0,3.2c0,1.5-1.1,2.6-2.6,2.6C41.1,43.2,39.9,43.2,38.7,43.2z M43.8,26.5c0-0.2,0-0.3,0-0.7c-0.1,0.3-0.2,0.4-0.2,0.6
		c-0.6,0.7-1,1.4-1.7,2c-1.5,1.3-3.1,1.9-5.1,1.5c-0.9-0.2-1.7-0.7-2.2-1.6c-0.3-0.5-0.7-0.9-1.2-1.2c-0.6-0.3-1.1,0-1.3,0.6
		c-0.2,0.7,0,1.3,0.5,1.7c0.7,0.8,1.6,1.5,2.6,1.9c3,1.1,6.1,0.3,8.3-2.2c0.7-0.8,1.1-1.7,1.1-2.8c-0.3,0.2-0.5,0.3-0.8,0.5
		C43.8,26.7,43.8,26.6,43.8,26.5z M43.9,25.7c0.1,0,0.2-0.1,0.2-0.2c0-0.1,0-0.3-0.2-0.2c-0.1,0-0.1,0.1-0.1,0.2
		C43.8,25.6,43.8,25.7,43.9,25.7z"/>
	<path class="st0" d="M79.4,40.3c0-2.9,0-5.7,0-8.6c0-2.7,0-5.4,0-8c0-0.4,0.1-0.6,0.6-0.6c3.5,0,7.1-0.1,10.6,0
		c3.7,0.1,6.8,1.6,8.9,4.8c2.5,3.7,1.8,9.2-1.4,12.2c-0.1,0.1-0.1,0.1-0.2,0.2c-1.7,1.5-3.7,2.4-6,2.8c-0.8,0.1-1.6,0.2-2.4,0.2
		c-3.2,0-6.3,0-9.5,0c-0.5,0-0.6-0.1-0.6-0.6C79.4,41.8,79.4,41,79.4,40.3z M86.4,33.1c0,1.5,0,3,0,4.4c0,0.2-0.1,0.5,0.3,0.5
		c1.2,0,2.5,0.2,3.7-0.2c2.5-0.7,3.8-3,3.4-5.6c-0.3-2.1-1.6-3.5-3.7-4c-1.1-0.2-2.1,0-3.2-0.1c-0.4,0-0.5,0.1-0.5,0.5
		C86.4,30.1,86.4,31.6,86.4,33.1z"/>
	<path class="st0" d="M12.8,36.6c0.4,0,0.7,0.3,1,0.5c1.4,0.8,2.9,1.5,4.6,1.5c0.4,0,0.7-0.1,1-0.2c0.8-0.3,1.1-1.3,0.4-1.9
		c-0.7-0.6-1.5-1.1-2.3-1.5c-1-0.5-2-1.2-2.8-2c-2.8-2.7-2.4-6.9,0.9-9.1c0.9-0.6,2-1,3.1-1.1c2.7-0.2,5.3,0.2,7.5,1.9
		c0.2,0.1,0.3,0.3,0.3,0.5c0,1.6,0,3.2,0,4.9c-0.4-0.1-0.6-0.4-0.9-0.6c-1.2-1-2.6-1.8-4.2-1.8c-0.3,0-0.7,0-1,0.1
		c-0.4,0.1-0.8,0.3-0.9,0.8c-0.1,0.5,0,1,0.4,1.3c0.8,0.7,1.7,1.2,2.6,1.6c1.1,0.6,2.1,1.3,3.1,2c2.4,1.9,2.4,7.1-1.4,8.9
		c-2,1-4.1,1.1-6.2,1c-1.6-0.1-3.1-0.6-4.6-1.2c-0.4-0.2-0.5-0.3-0.5-0.8C12.8,39.9,12.8,38.3,12.8,36.6z"/>
	<path class="st1" d="M50.3,19.7c-0.2-0.6-0.6-0.9-1.3-0.9c-0.7,0-1.5-0.1-2.2-0.2c-0.8-0.1-1.5-0.4-2.1-1.1c-0.5-0.6-0.3-1,0.4-1.3
		c0.2-0.1,0.4-0.2,0.6-0.4c1.3-1.3,2.9-1.7,4.6-2c0.1,0,0.2,0,0.4-0.1c0.8-0.3,1.5,0.1,2.2,0.5c0.1,0.1,0.2,0.2,0.1,0.3
		c-0.3,0.3,0,0.9-0.5,1.1c0,0-0.1,0.2-0.1,0.2c0.4,0.4,0,0.9,0,1.3c-0.1,0.8-0.6,1.3-1.2,1.8C51,19.2,50.6,19.3,50.3,19.7z"/>
	<path class="st2" d="M36.8,16.6c-0.6-0.1-1.2-0.4-1.5-1c-0.3-0.5-0.6-1.1-0.9-1.6c-0.3-0.4-0.6-1-1.2-0.6c0,0-0.1,0-0.2,0
		c-0.7-0.5-1.5-0.8-2-1.5c-0.2-0.4,0.1-0.7,0.3-0.9c0.1-0.1,0.3-0.2,0.2-0.4c-0.2-0.4,0.4-0.7-0.1-1.1c0,0,0-0.1,0.1-0.1
		c0.6-0.1,1.2-0.5,1.9-0.3c1.9,0.8,3.6,1.9,4.5,3.9c0.3,0.6,0.4,1.3,0.4,2c0,0.8-0.7,1-1.2,1.5C37,16.6,36.9,16.6,36.8,16.6z"/>
	<path class="st0" d="M46.1,12.7c-0.3,0-0.5,0.1-0.7,0.2C45,13.3,44.5,13.7,44,14c-0.4,0.3-0.8,0.4-1.3,0.4c-0.7,0-0.8-0.3-0.7-0.9
		c0.1-0.5,0.1-1,0.3-1.5c0.3-1,0.9-1.9,1.6-2.8c0.2-0.3,0.4-0.4,0.7-0.5c0.5-0.2,0.9-0.1,0.9,0.5c0,0.5,0.5,0.7,0.7,1
		c0.6,0.8,0.4,1.5,0.2,2.3C46.4,12.9,46.2,12.7,46.1,12.7z"/>
	<path class="st3" d="M40.9,9.8c0,0.5-0.3,1.1-0.4,1.6c-0.1,0.3-0.7,0.4-1,0.1c-0.3-0.2-0.5-0.5-0.7-0.9c-0.1-0.3-0.3-0.6-0.4-1
		c-0.1-0.3-0.3-0.5-0.4-0.8c-0.1-0.3-0.7,0.2-0.4-0.3C38,8,38.1,7,39.1,6.8c0.2,0,0.3,0,0.4,0.2c0.2,0.8,0.9,1.2,1.2,2
		C40.8,9.2,40.9,9.5,40.9,9.8z"/>
	<path class="st4" d="M43.8,26.5c0,0.1,0,0.2,0,0.4c0.3-0.2,0.5-0.3,0.8-0.5c0,1.1-0.4,2-1.1,2.8c-2.2,2.4-5.2,3.3-8.3,2.2
		c-1-0.4-1.9-1.1-2.6-1.9c-0.4-0.5-0.7-1.1-0.5-1.7c0.2-0.6,0.7-0.8,1.3-0.6c0.5,0.3,0.9,0.6,1.2,1.2c0.4,0.9,1.2,1.4,2.2,1.6
		c1.9,0.4,3.6-0.2,5.1-1.5c0.7-0.6,1.2-1.3,1.7-2C43.5,26.6,43.7,26.6,43.8,26.5z"/>
	<path class="st3" d="M43.9,25.7c-0.1,0-0.1-0.1-0.1-0.2c0-0.1,0-0.2,0.1-0.2c0.1,0,0.2,0.1,0.2,0.2C44.2,25.6,44,25.6,43.9,25.7z"
		/>
	<path class="st3" d="M43.8,26.5c-0.1,0.1-0.2,0.1-0.2-0.1c0.1-0.1,0.1-0.3,0.2-0.6C43.8,26.2,43.8,26.3,43.8,26.5z"/>
	<path class="st5" d="M86.4,33.1c0-1.5,0-3,0-4.4c0-0.4,0.1-0.5,0.5-0.5c1.1,0.1,2.2-0.1,3.2,0.1c2,0.5,3.3,1.9,3.7,4
		c0.4,2.7-0.9,5-3.4,5.6c-1.2,0.3-2.5,0.1-3.7,0.2c-0.4,0-0.3-0.3-0.3-0.5C86.4,36.1,86.4,34.6,86.4,33.1z"/>
</g>
</svg>
